<?xml version="1.0" standalone="no"?>
<!DOCTYPE svg PUBLIC "-//W3C//DTD SVG 20010904//EN"
 "http://www.w3.org/TR/2001/REC-SVG-20010904/DTD/svg10.dtd">
<svg version="1.0" xmlns="http://www.w3.org/2000/svg"
 width="192.000000pt" height="192.000000pt" viewBox="0 0 192.000000 192.000000"
 preserveAspectRatio="xMidYMid meet">
<metadata>
Created by potrace 1.11, written by Peter Selinger 2001-2013
</metadata>
<g transform="translate(0.000000,192.000000) scale(0.100000,-0.100000)"
fill="#000000" stroke="none">
<path d="M868 1451 c-81 -26 -151 -74 -194 -132 -114 -156 -133 -483 -39 -669
33 -66 100 -128 175 -164 65 -31 66 -31 230 -31 172 0 233 10 280 45 l25 19 3
210 c2 138 -1 217 -8 231 -10 19 -20 20 -161 20 l-149 0 -11 -27 c-6 -17 -7
-40 -2 -58 l9 -30 92 -3 92 -3 0 -139 c0 -164 13 -152 -158 -153 -97 0 -125 3
-162 20 -118 53 -172 173 -171 381 0 148 22 228 81 295 55 63 124 88 240 88
85 1 109 -5 227 -57 15 -7 53 53 53 83 0 28 -48 58 -125 78 -84 21 -253 19
-327 -4z"/>
</g>
</svg>
